<?xml version="1.0" standalone="no"?>
<!DOCTYPE svg PUBLIC "-//W3C//DTD SVG 20010904//EN"
 "http://www.w3.org/TR/2001/REC-SVG-20010904/DTD/svg10.dtd">
<svg version="1.0" xmlns="http://www.w3.org/2000/svg"
 width="133.000000pt" height="230.000000pt" viewBox="0 0 133.000000 230.000000"
 preserveAspectRatio="xMidYMid meet">

<g transform="translate(0.000000,230.000000) scale(0.100000,-0.100000)"
fill="#000000" stroke="none">
<path d="M69 2267 c-40 -27 -59 -60 -59 -105 0 -65 37 -108 105 -122 25 -5 31
-11 33 -40 2 -19 -2 -52 -9 -73 -9 -29 -10 -40 -1 -49 7 -7 12 -43 12 -85 0
-69 -1 -73 -22 -74 -13 -1 -27 -1 -32 0 -5 1 -5 -6 0 -16 13 -31 16 -110 5
-132 -11 -19 -9 -21 19 -21 l32 0 -6 -82 c-7 -110 -7 -124 0 -184 l6 -51 -40
-7 c-110 -17 -140 -165 -46 -227 77 -51 194 6 194 95 0 23 4 26 37 26 20 0 52
-5 70 -12 27 -10 38 -10 53 0 11 7 51 12 90 12 l70 0 0 -31 c0 -26 3 -30 18
-23 22 11 112 11 135 0 14 -7 17 -3 17 23 l0 31 74 0 c41 0 78 -4 81 -10 8
-13 48 -13 62 1 5 5 30 9 54 7 39 -3 44 -6 49 -33 15 -71 57 -105 131 -105 35
0 48 6 80 39 32 32 39 46 39 77 0 68 -59 134 -120 134 -17 0 -20 6 -20 45 0
25 5 54 12 64 9 15 9 25 0 46 -7 14 -12 57 -12 95 l0 70 30 0 c27 0 30 2 20
19 -13 25 -13 107 0 132 10 17 7 19 -20 19 l-30 0 0 70 c0 39 5 79 12 89 9 15
9 25 0 46 -7 14 -12 46 -12 70 0 42 2 45 26 45 82 0 140 103 101 180 -17 33
-74 70 -109 70 -62 0 -128 -58 -128 -112 l0 -30 -57 6 c-68 7 -73 7 -180 0
l-83 -6 0 32 c0 27 -2 30 -19 20 -11 -5 -41 -10 -66 -10 -25 0 -55 5 -66 10
-17 10 -19 7 -19 -20 l0 -32 -82 6 c-108 7 -113 7 -179 0 l-56 -6 -6 39 c-9
57 -66 103 -125 103 -16 0 -44 -10 -63 -23z m120 -79 c14 -25 14 -29 -5 -55
-29 -39 -66 -41 -93 -7 -25 32 -26 42 -5 72 23 33 83 27 103 -10z m1057 3 c16
-31 4 -62 -29 -81 -31 -18 -53 -8 -76 32 -13 23 -13 29 3 52 14 23 23 27 54
24 27 -2 40 -9 48 -27z m-531 -65 c19 -8 35 -20 35 -26 0 -8 33 -12 108 -11
59 1 141 0 182 -1 l75 -3 7 -85 c9 -99 9 -81 2 -192 -4 -63 -3 -88 5 -88 7 0
19 -16 27 -37 19 -44 11 -96 -18 -125 -18 -18 -19 -28 -14 -102 7 -102 7 -86
-2 -186 l-7 -85 -80 -7 c-94 -9 -97 -9 -196 -2 -72 5 -78 4 -102 -20 -37 -37
-107 -37 -144 0 -24 24 -30 25 -102 20 -93 -7 -96 -7 -198 0 l-82 5 -5 82 c-7
110 -7 102 0 188 5 69 4 79 -14 97 -40 40 -41 123 -1 163 19 19 20 29 15 103
-7 100 -7 85 0 181 4 44 11 83 18 88 10 7 53 9 166 8 25 0 74 0 110 0 41 0 70
5 80 14 38 35 85 42 135 21z m-529 -992 c19 -28 11 -59 -21 -80 -47 -31 -109
21 -86 72 21 46 79 51 107 8z m1060 -3 c15 -30 7 -59 -22 -77 -30 -20 -52 -15
-77 18 -17 23 -19 31 -9 53 22 48 85 51 108 6z"/>
<path d="M651 1955 c1 -54 -4 -82 -21 -120 l-23 -50 -19 45 c-11 26 -42 66
-74 96 -58 55 -62 46 -14 -34 17 -29 30 -68 34 -100 l5 -53 -42 31 c-28 20
-63 34 -100 40 -32 5 -63 12 -70 16 -6 4 -5 -1 3 -10 9 -9 36 -26 60 -38 26
-14 58 -42 76 -68 l32 -45 -66 0 c-48 -1 -80 -7 -112 -22 l-45 -22 62 1 c43 1
79 -6 119 -22 l57 -24 -44 -18 c-40 -17 -159 -128 -137 -128 6 0 35 15 66 34
39 24 73 36 109 39 l52 4 -29 -41 c-17 -23 -34 -64 -40 -94 -5 -29 -15 -63
-21 -75 -11 -20 -11 -21 5 -8 10 8 28 36 41 62 21 40 67 86 112 112 8 5 10 -9
6 -51 -4 -40 -1 -69 11 -96 9 -21 16 -50 16 -65 0 -20 2 -23 10 -11 5 8 9 42
8 75 -2 41 4 75 17 107 11 27 22 48 25 48 3 0 15 -22 28 -49 12 -27 34 -57 49
-66 14 -10 37 -29 50 -43 l24 -26 -10 27 c-6 14 -21 43 -34 64 -14 22 -27 60
-30 91 -6 48 3 67 18 42 11 -17 78 -47 122 -54 23 -3 49 -9 59 -13 36 -13 3
15 -40 35 -37 18 -126 104 -126 123 0 3 26 3 58 1 39 -3 70 1 96 12 21 9 50
16 65 17 l26 0 -25 10 c-14 6 -43 8 -65 4 -28 -4 -56 0 -97 16 -32 12 -58 25
-58 29 0 5 15 13 34 20 18 6 46 25 62 42 16 17 42 44 58 60 l29 29 -26 -10
c-15 -6 -43 -21 -64 -35 -23 -14 -61 -27 -96 -31 l-58 -7 32 46 c20 28 35 64
39 93 4 27 11 57 15 67 17 40 -16 4 -40 -44 -20 -40 -98 -120 -117 -120 -3 0
-3 22 0 49 3 33 -2 68 -14 103 -27 79 -34 80 -33 3z m-60 -307 l2 -23 4 23 c5
23 36 31 48 12 5 -7 11 -8 19 -1 6 5 32 9 56 8 43 -2 45 -4 48 -34 3 -29 0
-33 -22 -33 -14 0 -28 5 -32 12 -5 8 0 9 15 5 18 -4 20 -3 11 8 -8 10 -7 14 2
18 10 4 10 6 0 6 -6 1 -22 -10 -34 -24 -27 -31 -34 -31 -43 -2 l-8 22 -4 -22
c-4 -19 -10 -23 -44 -21 -33 1 -39 5 -39 23 0 11 -5 26 -12 33 -9 9 -7 12 10
12 16 0 22 -6 23 -22z"/>
<path d="M218 643 c-5 -29 4 -93 13 -93 5 0 9 11 9 25 0 20 5 25 25 25 20 0
25 -5 25 -25 0 -14 5 -25 10 -25 6 0 10 25 10 55 0 30 -4 55 -10 55 -5 0 -10
-9 -10 -20 0 -15 -7 -20 -25 -20 -18 0 -25 5 -25 20 0 24 -17 27 -22 3z"/>
<path d="M349 643 c0 -10 -1 -35 -2 -56 -1 -24 2 -37 11 -37 6 0 12 9 12 20 0
26 8 25 30 -2 22 -27 36 -19 20 11 -8 15 -8 21 0 21 6 0 10 12 8 28 -3 23 -8
27 -40 30 -31 3 -38 0 -39 -15z m59 -15 c-7 -19 -38 -22 -38 -4 0 10 9 16 21
16 12 0 19 -5 17 -12z"/>
<path d="M450 653 c0 -5 7 -31 16 -57 21 -60 40 -57 65 9 23 60 22 55 4 55 -8
0 -15 -4 -15 -9 0 -5 -5 -22 -11 -38 l-11 -28 -12 34 c-11 32 -36 55 -36 34z"/>
<path d="M566 610 c-10 -28 -15 -54 -11 -58 4 -4 10 -1 12 6 6 15 45 16 61 0
22 -22 24 1 6 52 -11 32 -24 50 -34 50 -10 0 -23 -18 -34 -50z m44 -6 c0 -8
-4 -14 -10 -14 -5 0 -10 9 -10 21 0 11 5 17 10 14 6 -3 10 -13 10 -21z"/>
<path d="M650 650 c0 -5 7 -10 15 -10 11 0 15 -12 15 -45 0 -33 4 -45 15 -45
11 0 15 12 15 45 0 33 4 45 15 45 8 0 15 5 15 10 0 6 -20 10 -45 10 -25 0 -45
-4 -45 -10z"/>
<path d="M764 646 c-9 -24 2 -44 27 -48 29 -4 37 -28 10 -28 -12 0 -21 5 -21
10 0 6 -7 10 -15 10 -22 0 -18 -17 6 -30 44 -24 101 19 63 47 -10 7 -26 13
-37 13 -11 0 -17 5 -14 13 5 13 11 13 41 1 14 -5 17 -3 14 7 -7 20 -67 24 -74
5z"/>
<path d="M870 605 c0 -30 5 -55 10 -55 6 0 10 12 10 28 l1 27 22 -27 c30 -36
56 -39 33 -3 -20 31 -20 44 1 67 15 17 15 18 0 18 -9 0 -22 -9 -29 -20 -7 -11
-16 -20 -20 -20 -5 0 -8 9 -8 20 0 11 -4 20 -10 20 -5 0 -10 -25 -10 -55z"/>
<path d="M974 635 c-9 -14 -13 -32 -9 -45 15 -47 86 -50 107 -5 27 59 -62 105
-98 50z m74 -21 c4 -25 -20 -47 -42 -38 -16 6 -22 45 -9 58 14 14 48 1 51 -20z"/>
<path d="M220 425 c0 -30 5 -55 10 -55 6 0 10 17 10 37 l0 38 25 -38 c14 -20
30 -37 35 -37 6 0 10 25 10 55 0 59 -17 76 -22 23 l-3 -33 -20 33 c-30 49 -45
41 -45 -23z"/>
<path d="M353 428 c-13 -35 -17 -54 -10 -57 6 -2 13 1 15 8 5 15 45 14 60 -1
21 -21 23 -2 5 48 -25 67 -45 68 -70 2z m47 -4 c0 -8 -7 -14 -15 -14 -17 0
-18 2 -9 24 7 18 24 12 24 -10z"/>
<path d="M460 425 c0 -42 3 -55 15 -55 9 0 15 9 15 23 l1 22 18 -22 c19 -23
41 -31 41 -15 0 4 -5 13 -11 19 -8 8 -7 16 2 30 20 33 5 53 -41 53 l-40 0 0
-55z m68 23 c-7 -19 -38 -22 -38 -4 0 10 9 16 21 16 12 0 19 -5 17 -12z"/>
<path d="M580 465 c-30 -36 -4 -95 42 -95 23 0 58 35 58 58 0 43 -73 70 -100
37z m65 -40 c0 -23 -5 -30 -19 -30 -24 0 -41 27 -33 49 4 11 15 16 29 14 18
-2 23 -9 23 -33z"/>
<path d="M700 425 c0 -54 0 -55 30 -55 17 0 39 9 50 20 40 40 15 90 -46 90
l-34 0 0 -55z m68 4 c2 -17 -3 -29 -13 -33 -25 -9 -35 1 -35 35 0 26 3 30 23
27 15 -2 23 -11 25 -29z"/>
<path d="M820 425 c0 -62 17 -75 22 -17 l3 37 24 -37 c34 -56 51 -50 51 17 0
30 -4 55 -10 55 -5 0 -10 -15 -10 -32 l-1 -33 -27 33 c-40 47 -52 42 -52 -23z"/>
<path d="M950 461 c-32 -61 37 -123 84 -75 19 18 21 65 4 82 -20 20 -76 15
-88 -7z m75 -22 c8 -26 -16 -54 -39 -46 -16 6 -22 48 -9 60 14 14 42 6 48 -14z"/>
<path d="M843 319 c11 -7 23 -7 35 0 14 9 11 10 -18 10 -29 0 -32 -1 -17 -10z"/>
<path d="M220 245 c0 -30 5 -55 10 -55 6 0 10 12 10 28 l1 27 20 -27 c30 -40
58 -38 29 2 -20 28 -20 31 -4 55 21 32 0 34 -27 3 l-18 -23 -1 23 c0 12 -4 22
-10 22 -5 0 -10 -25 -10 -55z"/>
<path d="M353 283 c-3 -10 -12 -33 -19 -52 -17 -41 -17 -41 1 -41 8 0 15 5 15
10 0 6 11 10 25 10 14 0 25 -4 25 -10 0 -5 7 -10 16 -10 16 0 15 12 -12 77
-15 36 -41 44 -51 16z m37 -45 c0 -5 -7 -8 -15 -8 -17 0 -18 2 -9 25 5 13 8
14 15 3 5 -7 9 -16 9 -20z"/>
<path d="M450 290 c0 -5 12 -10 26 -10 l26 0 -26 -31 c-38 -44 -34 -59 14 -59
22 0 40 5 40 10 0 6 -11 10 -25 10 -14 0 -25 4 -25 8 0 5 11 19 25 32 37 35
32 50 -15 50 -22 0 -40 -4 -40 -10z"/>
<path d="M577 267 c-24 -57 -29 -77 -18 -77 5 0 13 5 16 10 3 6 17 10 31 10
13 0 24 -4 24 -10 0 -5 6 -10 14 -10 12 0 12 8 -3 53 -22 63 -44 72 -64 24z
m33 -31 c-14 -14 -24 0 -16 21 6 15 8 15 16 3 6 -9 5 -19 0 -24z"/>
<path d="M680 245 l0 -55 35 0 c39 0 48 17 13 22 -19 2 -24 10 -26 46 -5 61
-22 52 -22 -13z"/>
<path d="M770 245 c0 -30 5 -55 10 -55 6 0 10 25 10 55 0 30 -4 55 -10 55 -5
0 -10 -25 -10 -55z"/>
<path d="M824 285 c-9 -23 2 -43 27 -47 29 -4 38 -28 11 -28 -11 0 -22 5 -24
12 -2 6 -10 9 -17 7 -11 -4 -10 -9 3 -22 22 -21 50 -22 70 -1 24 23 20 33 -20
50 -27 11 -34 18 -26 26 8 8 16 8 27 -2 17 -14 31 -8 20 9 -10 17 -65 13 -71
-4z"/>
<path d="M920 290 c0 -5 7 -10 15 -10 11 0 15 -12 15 -45 0 -33 4 -45 15 -45
11 0 15 12 15 45 0 33 4 45 15 45 8 0 15 5 15 10 0 6 -20 10 -45 10 -25 0 -45
-4 -45 -10z"/>
<path d="M1030 245 l0 -55 40 0 c22 0 40 5 40 10 0 6 -11 10 -25 10 -16 0 -25
6 -25 15 0 8 9 15 20 15 11 0 20 5 20 10 0 6 -9 10 -20 10 -11 0 -20 5 -20 10
0 6 11 10 25 10 14 0 25 5 25 10 0 6 -18 10 -40 10 l-40 0 0 -55z"/>
<path d="M216 104 c-8 -21 11 -44 35 -44 11 0 19 -7 19 -15 0 -18 -21 -20 -38
-3 -17 17 -28 2 -12 -17 25 -31 80 -12 80 27 0 13 -10 20 -30 25 -16 3 -30 12
-30 19 0 16 16 19 25 4 10 -16 35 -12 29 5 -8 21 -70 20 -78 -1z"/>
<path d="M320 66 c0 -43 3 -56 15 -56 8 0 15 8 15 19 0 13 10 20 31 25 26 5
30 10 27 33 -3 25 -7 28 -45 31 l-43 3 0 -55z m63 19 c1 -5 -6 -11 -15 -13
-11 -2 -18 3 -18 13 0 17 30 18 33 0z"/>
<path d="M430 65 l0 -55 35 0 c24 0 35 5 35 15 0 9 -8 14 -22 12 -20 -2 -23 3
-26 41 -5 61 -22 52 -22 -13z"/>
<path d="M520 65 c0 -42 3 -55 15 -55 12 0 15 13 15 55 0 42 -3 55 -15 55 -12
0 -15 -13 -15 -55z"/>
<path d="M560 110 c0 -5 9 -10 20 -10 17 0 20 -7 20 -45 0 -25 5 -45 10 -45 6
0 10 20 10 45 0 38 3 45 20 45 11 0 20 5 20 10 0 6 -22 10 -50 10 -27 0 -50
-4 -50 -10z"/>
</g>
</svg>
