<?xml version="1.0" encoding="UTF-8"?>
<svg id="Layer_1" data-name="Layer 1" xmlns="http://www.w3.org/2000/svg" viewBox="0 0 454.92 635.82">
  <defs>
    <style>
      .cls-1 {
        fill: #b7202e;
      }
    </style>
  </defs>
  <path class="cls-1" d="M219.83,199.51c0-1.14-.78-1.85-2.08-1.85s-2.12,.71-2.12,1.85c0,1.03,.8,1.69,2.12,1.69s2.08-.66,2.08-1.69m.57,6.76c0-1.16-1.03-1.99-2.65-1.99s-2.67,.82-2.67,1.99c0,1.28,.98,2.06,2.67,2.06s2.65-.78,2.65-2.06m14.65-6.1c0-1.58-1.28-2.31-2.65-2.31s-2.65,.73-2.65,2.31,1.26,2.35,2.65,2.35,2.65-.69,2.65-2.35m14.9,2.4c1.99,.68,3.13,1.94,3.13,3.66,0,3.08-2.7,5.19-6.69,5.19-3.72,0-6.42-2.15-6.42-5.14h3.82c.11,1.28,1.1,2.06,2.65,2.06,1.67,0,2.63-.75,2.63-2.01s-1.14-1.97-3.11-1.97h-1.87v-3.08h1.67c1.62,0,2.54-.64,2.54-1.8s-.78-1.8-2.1-1.8-2.1,.78-2.1,2.03h-3.82c.02-2.93,2.67-5.12,6.12-5.12,3.7,0,5.94,1.9,5.94,4.57,0,1.42-.82,2.56-2.38,3.43m-10.81-2.54c0,2.01-.55,3.34-2.22,5.26l-5.12,5.89h-4.41l4.75-5.6h-.39c-3.59,0-6.08-2.22-6.08-5.28s2.74-5.74,6.76-5.74,6.69,2.54,6.69,5.46m-17.39,2.63c1.55,.78,2.65,1.99,2.65,3.7,0,2.9-2.65,5.05-6.65,5.05s-6.72-2.15-6.72-5.05c0-1.71,1.12-2.92,2.67-3.7-1.26-.73-2.12-1.8-2.12-3.29,0-2.72,2.45-4.8,6.17-4.8s6.12,2.08,6.12,4.8c0,1.49-.89,2.56-2.12,3.29m-12.79,8.52h-3.93v-13h-3.18v-3.4h7.11v16.41Zm115.98-8.6c-1.91-1.09-3.95-1.96-6.12-2.62-4.28-1.36-9.23-1.43-13.63-.81-2.08,.25-4.12,.63-6.13,.83-11.63,1.51-19.39-5.41-29.84-8.98-1.04-.35-2.11-.67-3.18-.94-.55-.14-.61-.89-.1-1.12,1.59-.69,3.25-1.29,5.04-1.94,4.26-1.51,8.96-3.29,12.95-5.76,4.14-2.45,7.99-5.96,10.77-9.74,2.6-3.41,4.47-6.77,7.34-9.75,1.34-1.38,2.83-2.64,4.51-3.73,1.68-1.08,3.49-2.03,5.39-2.84,.24-.1,.4-.33,.4-.61,0-.36-.3-.65-.66-.65-2.2,0-4.4,.28-6.61,.79-4.38,.97-8.71,3.37-12.21,6.11-1.68,1.26-3.25,2.61-4.9,3.78-9.32,7.12-19.49,5-30.33,7.14-1.08,.22-2.15,.48-3.22,.77-.54,.15-.98-.47-.64-.92,1.03-1.39,2.16-2.74,3.39-4.2,2.93-3.44,6.11-7.33,8.34-11.46,2.36-4.19,3.94-9.15,4.46-13.82,.54-4.25,.48-8.1,1.48-12.11,.47-1.86,1.13-3.71,2.04-5.49,.91-1.78,2.01-3.5,3.25-5.16,.15-.21,.18-.49,.04-.73-.18-.31-.58-.42-.9-.23-1.9,1.1-3.67,2.44-5.33,3.99-3.31,3.03-5.86,7.28-7.52,11.4-.83,1.93-1.51,3.88-2.35,5.72-4.51,10.82-14.38,14.08-22.7,21.35-.82,.73-1.63,1.49-2.41,2.28-.4,.4-1.08,.08-1.01-.48,.2-1.72,.5-3.46,.83-5.33,.82-4.45,1.63-9.4,1.49-14.1-.05-4.81-1.16-9.9-3.05-14.2-1.65-3.95-3.63-7.26-4.77-11.23-.52-1.85-.87-3.77-.98-5.77-.1-1.99-.01-4.04,.23-6.09,.03-.25-.09-.51-.33-.65-.31-.18-.72-.07-.89,.25-1.09,1.91-1.96,3.95-2.62,6.12-1.36,4.28-1.43,9.23-.81,13.63,.25,2.08,.63,4.12,.82,6.13,1.51,11.63-5.41,19.39-8.98,29.84-.35,1.04-.67,2.11-.94,3.18-.14,.55-.89,.61-1.12,.1-.68-1.59-1.29-3.25-1.94-5.04-1.51-4.26-3.29-8.96-5.76-12.95-2.45-4.14-5.96-7.99-9.74-10.77-3.41-2.6-6.77-4.47-9.75-7.34-1.38-1.34-2.64-2.83-3.73-4.51-1.09-1.67-2.03-3.49-2.84-5.39-.1-.23-.34-.4-.61-.4-.36,0-.65,.3-.65,.66,0,2.2,.28,4.4,.79,6.61,.96,4.38,3.37,8.71,6.11,12.21,1.26,1.68,2.61,3.25,3.78,4.9,7.12,9.32,5,19.49,7.14,30.33,.22,1.08,.48,2.15,.77,3.22,.15,.54-.47,.98-.92,.64-1.39-1.03-2.74-2.16-4.2-3.39-3.44-2.93-7.33-6.11-11.46-8.34-4.19-2.36-9.15-3.94-13.83-4.46-4.25-.54-8.1-.48-12.11-1.48-1.86-.47-3.71-1.13-5.49-2.04-1.78-.91-3.5-2.01-5.16-3.25-.21-.15-.49-.18-.73-.04-.31,.18-.42,.59-.24,.9,1.11,1.9,2.44,3.67,3.99,5.33,3.03,3.31,7.28,5.86,11.4,7.52,1.93,.83,3.88,1.51,5.72,2.35,10.83,4.51,14.08,14.38,21.35,22.7,.73,.83,1.49,1.63,2.28,2.41,.4,.39,.08,1.08-.48,1.01-1.72-.2-3.46-.5-5.33-.83-4.45-.82-9.4-1.63-14.1-1.49-4.81,.05-9.9,1.16-14.2,3.05-3.95,1.65-7.26,3.63-11.23,4.77-1.85,.52-3.78,.87-5.77,.98-1.99,.1-4.04,.01-6.09-.23-.25-.03-.51,.09-.65,.33-.18,.32-.07,.72,.25,.9,1.9,1.09,3.95,1.96,6.12,2.62,4.28,1.36,9.23,1.43,13.63,.81,2.08-.25,4.12-.63,6.13-.83,11.63-1.51,19.38,5.41,29.83,8.98,1.04,.35,2.11,.67,3.19,.94,.54,.14,.61,.89,.09,1.12-1.59,.69-3.25,1.29-5.04,1.94-4.26,1.51-8.96,3.29-12.95,5.76-4.14,2.45-7.99,5.96-10.77,9.75-2.6,3.41-4.47,6.77-7.34,9.75-1.34,1.38-2.83,2.64-4.51,3.73-1.68,1.08-3.49,2.03-5.39,2.84-.24,.1-.4,.34-.4,.61,0,.36,.3,.66,.66,.65,2.2,0,4.4-.28,6.61-.79,4.38-.97,8.71-3.38,12.21-6.11,1.68-1.26,3.25-2.61,4.9-3.78,9.32-7.12,19.49-5,30.33-7.14,1.08-.22,2.15-.48,3.22-.77,.54-.15,.98,.47,.64,.92-1.03,1.39-2.16,2.74-3.39,4.2-2.93,3.44-6.11,7.33-8.34,11.46-2.36,4.19-3.94,9.15-4.46,13.83-.54,4.25-.48,8.1-1.48,12.11-.47,1.86-1.13,3.71-2.04,5.49-.91,1.78-2.01,3.5-3.25,5.16-.15,.2-.18,.49-.04,.73,.18,.31,.59,.42,.9,.23,1.9-1.1,3.67-2.44,5.33-3.99,3.31-3.03,5.86-7.28,7.52-11.4,.83-1.93,1.51-3.88,2.35-5.72,4.51-10.82,14.38-14.08,22.7-21.35,.82-.73,1.63-1.49,2.41-2.28,.4-.4,1.08-.08,1.01,.48-.2,1.72-.5,3.46-.84,5.33-.82,4.45-1.63,9.4-1.49,14.1,.05,4.81,1.16,9.9,3.05,14.2,1.65,3.95,3.63,7.26,4.77,11.23,.52,1.85,.87,3.78,.98,5.77,.1,1.99,0,4.04-.23,6.09-.03,.25,.09,.51,.33,.65,.31,.18,.72,.07,.9-.25,1.09-1.9,1.96-3.95,2.62-6.12,1.36-4.28,1.43-9.23,.81-13.63-.25-2.08-.63-4.12-.82-6.13-1.51-11.63,5.41-19.38,8.98-29.83,.35-1.04,.67-2.11,.94-3.18,.14-.55,.89-.61,1.12-.1,.68,1.59,1.29,3.25,1.94,5.04,1.51,4.26,3.29,8.96,5.76,12.95,2.45,4.14,5.96,7.99,9.74,10.77,3.41,2.6,6.77,4.47,9.75,7.34,1.38,1.34,2.64,2.83,3.73,4.51,1.09,1.67,2.03,3.49,2.84,5.39,.1,.23,.34,.4,.61,.4,.36,0,.65-.3,.65-.66,0-2.2-.28-4.4-.79-6.61-.97-4.38-3.38-8.71-6.11-12.21-1.26-1.68-2.61-3.25-3.78-4.9-7.12-9.32-5-19.49-7.14-30.33-.22-1.08-.48-2.15-.77-3.22-.15-.54,.47-.98,.92-.64,1.39,1.03,2.74,2.16,4.2,3.39,3.44,2.93,7.33,6.11,11.46,8.34,4.19,2.36,9.15,3.94,13.82,4.46,4.25,.55,8.1,.48,12.11,1.48,1.86,.47,3.71,1.13,5.49,2.04,1.78,.91,3.5,2.01,5.16,3.25,.2,.15,.49,.18,.72,.04,.31-.18,.42-.59,.24-.9-1.1-1.9-2.44-3.67-3.99-5.33-3.03-3.32-7.28-5.86-11.4-7.52-1.93-.83-3.88-1.51-5.72-2.35-10.82-4.51-14.08-14.38-21.35-22.7-.73-.83-1.49-1.63-2.28-2.41-.4-.39-.08-1.08,.47-1.01,1.72,.2,3.46,.5,5.33,.84,4.45,.82,9.4,1.63,14.1,1.49,4.81-.05,9.9-1.16,14.2-3.05,3.95-1.65,7.26-3.63,11.23-4.77,1.85-.52,3.78-.87,5.77-.98,1.99-.1,4.04,0,6.09,.23,.25,.03,.51-.09,.65-.33,.18-.32,.07-.72-.25-.9"/>
  <path class="cls-1" d="M363.53,339.07c-2.54,2.54-6.05,4.11-9.92,4.11-7.75,0-14.04-6.28-14.04-14.03,0-.87,.08-1.71,.23-2.54,.52-2.86,1.91-5.42,3.88-7.39,1.97-1.97,4.53-3.36,7.39-3.88,.82-.15,1.67-.23,2.54-.23,3.88,0,7.38,1.57,9.92,4.11s4.11,6.05,4.11,9.93-1.57,7.38-4.11,9.92m-24.74-71.74c0,6.47-4.3,10.04-4.3,10.04v32.66h-32.5s-3.57,4.3-10.04,4.3-10.04-4.3-10.04-4.3h-33.85v5.01s-8,7.32-20.45,7.32-20.46-7.32-20.46-7.32v-5.01h-34s-3.57,4.3-10.05,4.3-10.04-4.3-10.04-4.3h-32.65v-32.5s-4.31-3.57-4.31-10.04,4.31-10.04,4.31-10.04v-33.85h-5.01s-7.32-8-7.32-20.45,7.32-20.46,7.32-20.46h5.01v-34s-4.31-3.57-4.31-10.05,4.31-10.04,4.31-10.04v-32.66h32.5s3.57-4.3,10.04-4.3,10.04,4.3,10.04,4.3h33.85v-5.01s8-7.32,20.45-7.32,20.46,7.32,20.46,7.32v5.01h34s3.57-4.3,10.05-4.3,10.04,4.3,10.04,4.3h32.65v32.5s4.3,3.57,4.3,10.04-4.3,10.04-4.3,10.04v33.85h5.01s7.32,8,7.32,20.45-7.32,20.46-7.32,20.46h-5.01v34s4.3,3.57,4.3,10.05m-223.45,61.81c0,3.88-1.57,7.38-4.11,9.92-2.54,2.54-6.05,4.11-9.92,4.11s-7.39-1.57-9.93-4.11c-2.54-2.54-4.11-6.05-4.11-9.92,0-7.75,6.29-14.04,14.04-14.04,.87,0,1.71,.08,2.53,.23,2.86,.52,5.42,1.91,7.39,3.88,1.97,1.97,3.36,4.53,3.88,7.39,.15,.82,.23,1.67,.23,2.54m-14.04-238.27c-3.88,0-7.39-1.57-9.93-4.11-2.54-2.54-4.11-6.05-4.11-9.93s1.57-7.38,4.11-9.92c2.54-2.54,6.05-4.11,9.93-4.11,7.75,0,14.04,6.28,14.04,14.03,0,.87-.08,1.71-.23,2.54-.52,2.86-1.91,5.42-3.88,7.39-1.97,1.97-4.53,3.36-7.39,3.88-.82,.15-1.67,.23-2.53,.23m242.38-23.96c2.54-2.54,6.05-4.11,9.93-4.11s7.38,1.57,9.92,4.11c2.54,2.54,4.11,6.05,4.11,9.92,0,7.75-6.29,14.04-14.04,14.04-.87,0-1.71-.08-2.54-.23-2.86-.52-5.42-1.91-7.39-3.88-1.97-1.97-3.36-4.53-3.88-7.39-.15-.82-.23-1.67-.23-2.54,0-3.88,1.57-7.38,4.11-9.92m9.93,231.35c-.85,0-1.7,.04-2.54,.1v-21s4.3-3.57,4.3-10.04-4.3-10.05-4.3-10.05v-34h13.69c.57,0,.9-.65,.56-1.11-1.83-2.4-5.7-8.74-5.7-19.35s3.87-16.93,5.7-19.34c.35-.46,.02-1.11-.56-1.11h-13.69v-33.85s4.3-3.57,4.3-10.04-4.3-10.04-4.3-10.04v-20.84c.84,.07,1.68,.1,2.54,.1,17.05,0,30.88-13.83,30.88-30.88,0-8.53-3.46-16.25-9.05-21.84-5.59-5.59-13.31-9.04-21.84-9.04s-16.25,3.46-21.84,9.04c-5.59,5.59-9.04,13.31-9.04,21.84,0,.85,.04,1.7,.1,2.54h-20.99s-3.57-4.3-10.04-4.3-10.05,4.3-10.05,4.3h-34v-13.69c0-.57-.65-.9-1.11-.55-2.4,1.83-8.74,5.7-19.35,5.7s-16.93-3.87-19.34-5.7c-.46-.35-1.11-.02-1.11,.55v13.69h-33.85s-3.57-4.3-10.04-4.3-10.04,4.3-10.04,4.3h-20.84c.07-.83,.1-1.68,.1-2.54,0-17.06-13.83-30.88-30.88-30.88-8.53,0-16.25,3.46-21.84,9.04s-9.05,13.31-9.05,21.84,3.46,16.25,9.05,21.84,13.31,9.05,21.84,9.05c.85,0,1.7-.03,2.53-.1v21s-4.3,3.57-4.3,10.04,4.3,10.05,4.3,10.05v34h-13.7c-.57,0-.9,.65-.55,1.11,1.83,2.41,5.69,8.75,5.69,19.35s-3.87,16.93-5.69,19.33c-.35,.46-.02,1.11,.55,1.11h13.7v33.85s-4.3,3.57-4.3,10.04,4.3,10.04,4.3,10.04v20.84c-.84-.07-1.68-.1-2.53-.1-17.06,0-30.88,13.83-30.88,30.88,0,8.53,3.46,16.25,9.05,21.84,5.59,5.59,13.31,9.04,21.84,9.04s16.25-3.46,21.84-9.04c5.59-5.59,9.04-13.31,9.04-21.84,0-.85-.03-1.7-.1-2.54h20.99s3.57,4.31,10.04,4.31,10.05-4.31,10.05-4.31h34v13.69c0,.57,.65,.9,1.11,.56,2.4-1.83,8.74-5.7,19.35-5.7s16.93,3.87,19.34,5.7c.46,.35,1.11,.02,1.11-.56v-13.69h33.85s3.57,4.31,10.04,4.31,10.04-4.31,10.04-4.31h20.84c-.07,.84-.1,1.68-.1,2.54,0,17.06,13.83,30.88,30.88,30.88,8.53,0,16.25-3.46,21.84-9.04,5.59-5.59,9.05-13.31,9.05-21.84s-3.46-16.25-9.05-21.84c-5.59-5.59-13.31-9.05-21.84-9.05"/>
  <path class="cls-1" d="M218.17,589.48v-21.02h8.45v-6.57h-24.17v6.57h8.45v21.02h7.26Zm-18.21-27.59h-7.26v27.59h7.26v-27.59Zm-10.33,27.59v-6.57h-11.6v-21.02h-7.26v27.59h18.87Zm-33.39-21.48c2.88,0,4.38,1.23,4.38,3.38s-1.5,3.57-4.38,3.57h-3.46v-6.95h3.46Zm.04,13.06c7.22,0,11.57-3.54,11.57-9.76s-4.34-9.41-11.57-9.41h-10.76v27.59h7.26v-8.41h3.5Zm-14.48-.62c0-4-2.61-6.42-7.53-7.38l-5.34-1.04c-1.46-.27-2.69-1-2.69-2.23,0-1.5,1.31-2.65,3.46-2.65,2.42,0,4.11,1.61,4.3,4.11h7.34c-.42-5.95-5.15-9.72-11.72-9.72-6.19,0-10.72,3.61-10.72,8.76,0,4.46,2.92,7.03,7.34,7.88l5.03,.96c1.61,.31,2.8,1.19,2.8,2.38,0,1.73-1.65,2.69-4.15,2.69-3,0-4.73-1.65-4.8-4.26h-7.34c.5,6.11,5.11,9.91,12.29,9.91s11.72-3.73,11.72-9.41"/>
  <path class="cls-1" d="M333.74,540.43h-12.26v-4.73h10.87v-6.3h-10.87v-3.96h11.99v-6.3h-19.25v27.59h19.52v-6.3Zm-31.24,6.3v-21.02h8.45v-6.57h-24.17v6.57h8.45v21.02h7.26Zm-16.56-9.03c0-4-2.61-6.42-7.53-7.38l-5.34-1.04c-1.46-.27-2.69-1-2.69-2.23,0-1.5,1.31-2.65,3.46-2.65,2.42,0,4.11,1.61,4.3,4.11h7.34c-.42-5.96-5.15-9.72-11.72-9.72-6.19,0-10.72,3.61-10.72,8.76,0,4.46,2.92,7.03,7.34,7.88l5.03,.96c1.61,.31,2.8,1.19,2.8,2.38,0,1.73-1.65,2.69-4.15,2.69-3,0-4.73-1.65-4.8-4.26h-7.34c.5,6.11,5.11,9.91,12.3,9.91s11.72-3.73,11.72-9.41m-7.88-19.82l5.38-6.22h-7.18l-2.38,2.84-2.34-2.84h-7.22l5.42,6.22h8.34Zm-18.83,1.27h-7.26v27.59h7.26v-27.59Zm-10.33,27.59v-6.57h-11.6v-21.02h-7.26v27.59h18.87Zm-36.08-19.59l2.88,8.76h-5.84l2.96-8.76Zm6.45,19.59h7.84l-10.11-27.59h-7.95l-10.22,27.59h7.34l1.73-5.11h9.68l1.69,5.11Zm-22.13,0v-6.26h-13.64l13.25-15.41v-5.92h-22.25v6.26h13.33l-13.18,15.52v5.8h22.48Zm-38.61-19.59l2.88,8.76h-5.84l2.96-8.76Zm6.45,19.59h7.84l-10.1-27.59h-7.95l-10.22,27.59h7.34l1.73-5.11h9.68l1.69,5.11Zm-38.04,0v-12.45l8.3,12.45h8.84l-9.99-14.64,9.72-12.95h-8.26l-8.61,11.6v-11.6h-7.26v27.59h7.26Z"/>
  <path class="cls-1" d="M306.46,498.07c-4.34,0-6.76-3.57-6.76-7.91s2.42-7.84,6.76-7.84,6.76,3.5,6.76,7.84-2.42,7.91-6.76,7.91m0,6.49c7.99,0,14.25-6.03,14.25-14.41s-6.26-14.33-14.25-14.33-14.22,5.95-14.22,14.33,6.26,14.41,14.22,14.41m-24.97-.58h6.99v-27.59h-6.65v15.94l-10.18-15.94h-7.8v27.59h6.65v-17.21l10.99,17.21Zm-39.11-21.32h3.07c4.73,0,7.18,2.5,7.18,7.38,0,5.19-2.38,7.68-7.18,7.68h-3.07v-15.06Zm3.5,21.32c8.53,0,14.22-5.92,14.22-13.95s-5.49-13.64-14.22-13.64h-10.76v27.59h10.76Zm-28.78-5.92c-4.34,0-6.76-3.57-6.76-7.91s2.42-7.84,6.76-7.84,6.76,3.5,6.76,7.84-2.42,7.91-6.76,7.91m0,6.49c7.99,0,14.25-6.03,14.25-14.41s-6.26-14.33-14.25-14.33-14.21,5.95-14.21,14.33,6.26,14.41,14.21,14.41m-31.39-22.17h3.73c3.23,0,4.73,1.04,4.73,3.23s-1.5,3.19-4.73,3.19h-3.73v-6.42Zm0,21.59v-9.18h2.38l5.65,9.18h8.64l-6.76-10.33c3.73-1.57,5.84-4.49,5.84-8.03,0-5.88-4.26-9.22-11.72-9.22h-11.3v27.59h7.26Zm-24.47-19.59l2.88,8.76h-5.84l2.96-8.76Zm6.46,19.59h7.84l-10.1-27.59h-7.95l-10.22,27.59h7.34l1.73-5.11h9.68l1.69,5.11Zm-30.35,0h6.99v-27.59h-6.65v15.94l-10.18-15.94h-7.8v27.59h6.65v-17.21l10.99,17.21Z"/>
  <path class="cls-1" d="M312.08,455.32c-4.34,0-6.76-3.57-6.76-7.91s2.42-7.84,6.76-7.84,6.76,3.5,6.76,7.84-2.42,7.91-6.76,7.91m0,6.49c7.99,0,14.25-6.03,14.25-14.41s-6.26-14.33-14.25-14.33-14.22,5.95-14.22,14.33,6.26,14.41,14.22,14.41m-29.58-.58v-12.45l8.3,12.45h8.84l-9.99-14.64,9.72-12.95h-8.26l-8.61,11.6v-11.6h-7.26v27.59h7.26Zm-10.99-9.03c0-4-2.61-6.42-7.53-7.38l-5.34-1.04c-1.46-.27-2.69-1-2.69-2.23,0-1.5,1.31-2.65,3.46-2.65,2.42,0,4.11,1.61,4.3,4.11h7.34c-.42-5.96-5.15-9.72-11.72-9.72-6.19,0-10.72,3.61-10.72,8.76,0,4.46,2.92,7.03,7.34,7.88l5.03,.96c1.61,.31,2.8,1.19,2.8,2.38,0,1.73-1.65,2.69-4.15,2.69-3,0-4.73-1.65-4.8-4.26h-7.34c.5,6.11,5.11,9.91,12.3,9.91s11.72-3.73,11.72-9.41m-33.04,9.03v-21.02h8.45v-6.57h-24.17v6.57h8.45v21.02h7.26Zm-26.59-19.59l2.88,8.76h-5.84l2.96-8.76Zm6.45,19.59h7.84l-10.1-27.59h-7.95l-10.22,27.59h7.34l1.73-5.11h9.68l1.69,5.11Zm-16.87-27.59h-7.3l-6.26,19.1-6.07-19.1h-7.88l9.76,27.59h7.91l9.84-27.59Zm-43.65,5.99h3.73c3.23,0,4.73,1.04,4.73,3.23s-1.5,3.19-4.73,3.19h-3.73v-6.42Zm0,21.59v-9.18h2.38l5.65,9.18h8.65l-6.76-10.33c3.73-1.57,5.84-4.49,5.84-8.03,0-5.88-4.26-9.22-11.72-9.22h-11.3v27.59h7.26Zm-30.85,0v-11.03h10.18v11.03h7.26v-27.59h-7.26v10.26h-10.18v-10.26h-7.26v27.59h7.26Z"/>
</svg>